<?xml version="1.0" standalone="no"?>
<!DOCTYPE svg PUBLIC "-//W3C//DTD SVG 20010904//EN"
 "http://www.w3.org/TR/2001/REC-SVG-20010904/DTD/svg10.dtd">
<svg version="1.0" xmlns="http://www.w3.org/2000/svg"
 width="500.000000pt" height="500.000000pt" viewBox="0 0 500.000000 500.000000"
 preserveAspectRatio="xMidYMid meet">
<metadata>
Created by potrace 1.16, written by Peter Selinger 2001-2019
</metadata>
<g transform="translate(0.000000,500.000000) scale(0.100000,-0.100000)"
fill="#000000" stroke="none">
<path d="M1870 3916 c-241 -168 -418 -451 -461 -737 -8 -50 -18 -87 -27 -93
-46 -27 -163 -140 -218 -210 -75 -94 -173 -285 -205 -396 -24 -87 -40 -308
-20 -296 6 4 11 15 11 25 0 40 40 171 75 244 61 129 181 270 297 348 84 58 84
58 93 2 11 -76 62 -220 113 -316 72 -137 159 -239 315 -369 24 -20 31 -36 43
-108 44 -259 161 -471 357 -648 27 -24 47 -45 45 -46 -2 -2 -23 -15 -48 -29
-192 -110 -475 -133 -704 -56 -95 32 -87 7 12 -39 190 -88 391 -124 582 -103
122 13 235 40 316 76 50 22 59 23 82 11 62 -31 194 -68 297 -83 188 -26 369
-4 550 68 157 63 203 108 64 64 -122 -39 -256 -50 -380 -31 -133 20 -262 63
-337 114 -10 7 5 27 58 77 178 173 297 399 332 631 9 66 16 82 37 99 215 167
355 378 418 629 14 55 27 103 28 104 2 2 37 -19 77 -46 183 -124 329 -342 368
-552 18 -94 30 -96 30 -7 0 175 -68 384 -182 557 -48 74 -189 224 -248 265
-33 23 -40 34 -45 74 -34 253 -160 500 -344 673 -95 91 -211 168 -211 142 0
-3 33 -38 73 -77 116 -114 199 -252 241 -404 19 -70 35 -228 25 -244 -4 -7
-29 -4 -75 10 -226 70 -475 66 -694 -11 -47 -17 -96 -31 -110 -31 -14 0 -63
14 -110 31 -226 80 -496 81 -727 3 l-53 -18 0 26 c0 73 25 215 52 291 53 150
128 263 245 369 52 46 63 61 47 61 -11 0 -49 -20 -84 -44z m140 -981 c36 -7
78 -18 93 -24 l28 -11 -34 -43 c-52 -65 -96 -140 -132 -224 l-34 -77 -64 66
c-35 36 -78 85 -94 109 -45 66 -105 189 -99 204 10 27 212 27 336 0z m1314 5
c22 -22 -97 -219 -194 -318 l-61 -63 -54 108 c-29 59 -74 137 -100 172 -25 34
-45 65 -43 67 8 8 135 36 197 44 75 10 242 3 255 -10z m-749 -405 c60 -97 82
-154 64 -166 -16 -10 -256 -11 -282 -1 -15 7 -14 14 18 81 19 40 54 100 77
132 40 57 42 59 60 42 11 -9 39 -49 63 -88z m-75 -630 c30 0 87 3 126 7 l71 8
-14 -62 c-8 -34 -25 -88 -38 -121 -28 -68 -104 -194 -133 -220 -19 -17 -21
-16 -55 32 -66 91 -133 242 -150 339 l-7 32 73 -7 c39 -5 97 -8 127 -8z"/>
</g>
</svg>
